<svg width="211px" height="46px" viewBox="0 0 211 46" version="1.1" xmlns="http://www.w3.org/2000/svg" xmlns:xlink="http://www.w3.org/1999/xlink">
    <title>LAPTOP</title>
    <desc>LAPTOP logo</desc>
    <g id="Group-6" transform="translate(0.000000, 0.662951)">
    <path d="M38.1568542,2.99390335 L53.0060967,17.8431458 C56.130291,20.9673401 56.130291,26.0326599 53.0060967,29.1568542 L38.1568542,44.0060967 C35.0326599,47.130291 29.9673401,47.130291 26.8431458,44.0060967 L11.9939033,29.1568542 C8.86970901,26.0326599 8.86970901,20.9673401 11.9939033,17.8431458 L26.8431458,2.99390335 C29.9673401,-0.130290988 35.0326599,-0.130290988 38.1568542,2.99390335 Z" id="Rectangle-Copy-5" fill="#FFCFB7"></path>
    <path d="M29.1568542,2.99390335 L44.0060967,17.8431458 C47.130291,20.9673401 47.130291,26.0326599 44.0060967,29.1568542 L29.1568542,44.0060967 C26.0326599,47.130291 20.9673401,47.130291 17.8431458,44.0060967 L2.99390335,29.1568542 C-0.130290988,26.0326599 -0.130290988,20.9673401 2.99390335,17.8431458 L17.8431458,2.99390335 C20.9673401,-0.130290988 26.0326599,-0.130290988 29.1568542,2.99390335 Z" id="Rectangle-Copy-6" fill="#FF5500"></path>
    <path d="M21,31.337049 L21,28.081235 L15.984984,23.837049 L21,19.592863 L21,16.337049 L14,22.6161188 L14,25.041368 L21,31.337049 Z M27,31.337049 L34,25.041368 L34,22.6161188 L27,16.337049 L27,19.4931952 L31.9931442,23.837049 L27,28.1476803 L27,31.337049 Z" id="&lt;/&gt;-copy" fill="#FFFFFF"></path>
</g>
    <rect x="0" y="0" width="211" height="46" fill="transparent"></rect>
</svg>
