<?xml version="1.0" standalone="no"?>
<!DOCTYPE svg PUBLIC "-//W3C//DTD SVG 20010904//EN"
 "http://www.w3.org/TR/2001/REC-SVG-20010904/DTD/svg10.dtd">
<svg version="1.0" xmlns="http://www.w3.org/2000/svg"
 width="900.000000pt" height="532.000000pt" viewBox="0 0 900.000000 532.000000"
 preserveAspectRatio="xMidYMid meet">

<g transform="translate(0.000000,532.000000) scale(0.100000,-0.100000)"
fill="#000000" stroke="none">
<path d="M4295 5034 c-326 -49 -608 -183 -832 -398 -186 -178 -313 -373 -392
-603 -61 -177 -75 -267 -75 -483 0 -164 3 -211 22 -296 81 -373 277 -684 569
-903 378 -284 870 -373 1325 -240 133 38 359 151 468 233 115 86 272 251 349
366 255 381 322 852 184 1295 -36 115 -131 306 -204 410 -79 110 -238 271
-345 347 -157 112 -350 199 -544 245 -90 22 -133 26 -300 28 -107 2 -208 1
-225 -1z m450 -169 c541 -112 946 -519 1062 -1065 28 -132 25 -392 -6 -530
-61 -275 -183 -494 -387 -689 -260 -251 -568 -375 -929 -374 -283 1 -512 71
-755 231 -98 65 -265 227 -334 324 l-47 67 344 463 c189 255 350 463 358 463
7 0 70 -99 139 -220 71 -124 133 -221 142 -223 19 -4 181 202 176 223 -2 8
-93 169 -203 360 -208 359 -213 366 -267 351 -16 -5 -147 -182 -413 -557 -214
-303 -395 -555 -402 -560 -13 -12 -33 49 -59 186 -22 118 -23 338 0 462 47
265 163 495 350 691 212 222 471 358 771 407 114 18 349 13 460 -10z"/>
<path d="M4330 4233 c0 -5 27 -57 59 -118 l59 -110 293 -3 c161 -1 297 -6 302
-11 5 -5 -156 -233 -358 -510 -344 -471 -366 -503 -363 -538 l3 -38 580 0 580
0 0 120 0 120 -340 5 c-246 4 -339 8 -338 16 1 7 164 233 363 503 330 451 360
495 360 531 l0 40 -600 0 c-330 0 -600 -3 -600 -7z"/>
<path d="M5646 1518 c-20 -18 -58 -115 -172 -433 -80 -226 -152 -427 -160
-448 l-13 -38 121 3 121 3 30 88 29 87 161 0 162 0 28 -90 28 -90 119 0 120 0
-41 112 c-22 62 -97 273 -167 468 l-127 355 -107 3 c-98 2 -108 1 -132 -20z
m162 -388 c23 -71 42 -134 42 -140 0 -6 -36 -10 -90 -10 -49 0 -90 3 -90 6 0
17 84 274 90 274 3 0 25 -58 48 -130z"/>
<path d="M6350 1475 c0 -57 3 -68 29 -97 l29 -33 196 -5 196 -5 -230 -273
-230 -273 0 -95 0 -94 370 0 370 0 0 100 0 100 -226 2 -227 3 232 274 231 275
0 93 0 93 -370 0 -370 0 0 -65z"/>
<path d="M70 1050 l0 -460 460 0 460 0 0 100 0 100 -360 0 -360 0 0 360 0 360
-100 0 -100 0 0 -460z"/>
<path d="M2920 1120 c0 -372 1 -393 20 -430 11 -22 39 -52 62 -67 41 -27 45
-28 215 -31 l173 -3 0 100 0 101 -140 0 -140 0 0 175 0 175 140 0 140 0 0 100
0 100 -140 0 -140 0 0 85 0 85 -95 0 -95 0 0 -390z"/>
<path d="M1100 1240 l0 -100 280 0 280 0 0 -35 0 -35 -280 0 -280 0 0 -170 c0
-197 10 -230 82 -277 l41 -28 319 -3 318 -3 0 298 c0 269 -2 302 -19 338 -22
47 -64 89 -104 104 -18 7 -142 11 -333 11 l-304 0 0 -100z m560 -410 l0 -40
-185 0 -185 0 0 33 c0 19 3 37 7 40 3 4 87 7 185 7 l178 0 0 -40z"/>
<path d="M2030 825 l0 -515 95 0 95 0 0 140 0 140 208 0 c225 0 259 7 309 61
48 52 53 84 53 316 0 191 -3 223 -19 258 -22 47 -64 89 -104 104 -18 7 -142
11 -333 11 l-304 0 0 -515z m560 140 l0 -175 -185 0 -185 0 0 175 0 175 185 0
185 0 0 -175z"/>
<path d="M3634 1321 c-23 -10 -54 -36 -70 -57 l-29 -37 0 -262 0 -262 29 -37
c53 -70 80 -76 341 -76 256 0 285 6 338 69 43 51 49 94 45 330 -3 243 -6 254
-81 315 l-39 31 -246 3 c-225 2 -251 0 -288 -17z m456 -356 l0 -175 -185 0
-185 0 0 175 0 175 185 0 185 0 0 -175z"/>
<path d="M4450 825 l0 -515 100 0 100 0 0 140 0 140 208 0 c231 0 263 7 314
68 42 50 50 113 46 342 -3 219 -8 239 -60 286 -58 53 -65 54 -398 54 l-310 0
0 -515z m570 140 l0 -175 -185 0 -185 0 0 175 0 175 185 0 185 0 0 -175z"/>
<path d="M7352 1212 c1 -4 79 -146 172 -315 l168 -307 73 0 72 0 169 307 c93
168 171 310 172 315 2 5 -40 7 -94 6 l-99 -3 -105 -194 c-58 -106 -110 -194
-115 -195 -5 0 -56 87 -114 194 l-106 195 -99 3 c-54 1 -96 -1 -94 -6z"/>
<path d="M8270 905 l0 -315 85 0 85 0 0 230 0 230 145 0 145 0 0 -230 0 -230
85 0 85 0 0 255 c0 273 -2 287 -52 331 -43 39 -81 44 -334 44 l-244 0 0 -315z"/>
<path d="M7196 794 c-12 -11 -16 -36 -16 -94 0 -103 7 -110 109 -110 102 0
111 9 111 112 0 99 -10 108 -113 108 -55 0 -80 -4 -91 -16z"/>
</g>
</svg>
